HIERARCHY
ROOT Hips
{
    OFFSET 0.0 0.0 0.0
    CHANNELS 6 Xposition Yposition Zposition Zrotation Xrotation Yrotation
    JOINT Spine
    {
        OFFSET 0.0 24.99717550194369 0.0
        CHANNELS 3 Zrotation Xrotation Yrotation
        JOINT Chest
        {
            OFFSET 0.0 24.997175501943687 0.0
            CHANNELS 3 Zrotation Xrotation Yrotation
            JOINT Head
            {
                OFFSET 0.0 18.14695978361579 0.0
                CHANNELS 3 Zrotation Xrotation Yrotation
            }
            JOINT LeftUpperArm
            {
                OFFSET 16.4291351110527 0.0 0.0
                CHANNELS 3 Zrotation Xrotation Yrotation
                JOINT LeftLowerArm
                {
                    OFFSET 23.871829223782157 0.0 0.0
                    CHANNELS 3 Zrotation Xrotation Yrotation
                    JOINT LeftHand
                    {
                        OFFSET 23.021051914356576 0.0 0.0
                        CHANNELS 3 Zrotation Xrotation Yrotation
                    }
                    End Site
                    {
                    OFFSET 6.517608341232653 0.0 0.0
                    }
                }
            }
            JOINT RightUpperArm
            {
                OFFSET -16.4291351110527 0.0 0.0
                CHANNELS 3 Zrotation Xrotation Yrotation
                JOINT RightLowerArm
                {
                    OFFSET 23.871829223782157 0.0 0.0
                    CHANNELS 3 Zrotation Xrotation Yrotation
                    JOINT RightHand
                    {
                        OFFSET 23.021051914356576 0.0 0.0
                        CHANNELS 3 Zrotation Xrotation Yrotation
                    }
                    End Site
                    {
                    OFFSET 6.517608341232653 0.0 0.0
                    }
                }
            }
        }
    }
    JOINT LeftUpperLeg
    {
        OFFSET 9.053016085917449 0.0 0.0
        CHANNELS 3 Zrotation Xrotation Yrotation
        JOINT LeftLowerLeg
        {
            OFFSET 37.82886434284703 0.0 0.0
            CHANNELS 3 Zrotation Xrotation Yrotation
            JOINT LeftFootAnkle
            {
                OFFSET 40.37157936307976 0.0 0.0
                CHANNELS 3 Zrotation Xrotation Yrotation
                End Site
                {
                OFFSET 11.283376939873094 0.0 0.0
                }
            }
        }
    }
    JOINT RightUpperLeg
    {
        OFFSET -9.053016085917449 0.0 0.0
        CHANNELS 3 Zrotation Xrotation Yrotation
        JOINT RightLowerLeg
        {
            OFFSET 37.82886434284703 0.0 0.0
            CHANNELS 3 Zrotation Xrotation Yrotation
            JOINT RightFootAnkle
            {
                OFFSET 40.37157936307976 0.0 0.0
                CHANNELS 3 Zrotation Xrotation Yrotation
                End Site
                {
                OFFSET 11.283376939873094 0.0 0.0
                }
            }
        }
    }
}
MOTION
Frames: 11
Frame Time: 0.03333333333333333
-0.14498975704684464 -0.16295978031711048 0.08409965207775398 -4.290731744046599 13.49189327192659 13.503378455447033 -2.1806668252593924 0.8930193413538701 -13.577786688984267 -1.9079543892473092 1.3858963515076987 -13.605801873269815 -35.1983065550235 -7.504583173633016 -119.40911950134779 145.6870729035829 -62.69519017883458 146.36504636304207 -5.43223429246915 47.16327374583423 7.389026811080185 -30.701103265892677 -47.13539542553201 -42.60132656772779 92.05356296378338 -55.20757301263975 -122.45775533317061 -1.6462525366144212 3.7127341398941733 23.933546984063735 34.14658930352118 29.75051808567989 172.5998744826097 -155.19770294576753 -73.81699173223684 -65.86498508232259 -155.77273169364784 -21.343484304827523 180.0 -109.86071851013983 31.528728878050217 180.0 114.61066631454779 -59.716200508671896 -164.37003416004998 -161.99564539020383 -46.78657300320104 180.0 -93.52257034688006 -7.937810036573281 180.0
-0.14500502167162102 -0.1638856216565289 0.08376918632763862 -4.236533977034742 13.139124768881073 13.518597398474137 -2.2650617554069252 0.8915591810238418 -13.380125924527087 -1.9950658942984731 1.3977644833260485 -13.408778297637536 -35.0169538555717 -7.009026173247396 -119.4965218341761 155.51424541962902 -54.035892845081506 154.32821597984713 -6.682744631981764 58.22685583856176 7.847166346890948 -32.29727490229943 -48.335157052314074 -44.64588368198568 92.68896108559905 -55.58633260382134 -122.15120325358058 -1.2237526550461286 2.772584892041311 23.826998362069745 35.542833005989785 30.754856564668998 169.87923404907193 -154.5937087724867 -74.27744501433001 -65.26989141569358 -155.97731471574906 -21.29725447608907 180.0 -109.36262044520076 31.42139043159799 180.0 114.12096066164246 -59.8857710561642 -164.94075086757266 -161.95193741288338 -46.86148275433037 180.0 -93.28697307508772 -7.918987884997285 180.0
-0.14564866269125284 -0.16572258656191793 0.08094698717475396 -3.957643002028457 11.849019168723784 13.518166887187077 -2.478769552920797 0.8632460251463385 -13.010636681663096 -2.2185163219245485 1.4059408696343254 -13.03957844584101 -34.76408284928116 -5.597280434690725 -119.51044411060028 165.2009630331829 -41.28266575330426 161.3874233975199 -14.472032068154514 73.5379734759285 15.063055098799603 -31.277738539734276 -48.487847774129044 -43.15665840044835 92.14588033988271 -55.79427265723851 -123.15698194440584 -1.409059703100983 3.2091198086698505 23.720592911880853 36.94709451977645 29.496804155863902 170.3009260071661 -150.7688088713741 -75.25705114364908 -61.35258124084911 -156.07832529601126 -20.891175414570508 180.0 -108.85879479097525 31.305615324132745 180.0 112.36215545913569 -60.94650645282936 -166.85034217111712 -161.90975498381013 -46.24453946443682 180.0 -93.22164712924123 -7.768209971625148 180.0
-0.14613354819698104 -0.16786695170765567 0.0768865540816098 -3.6544744667660507 10.451049177923498 13.439567386561075 -2.518282518021085 0.8125821141006246 -12.979899650572907 -2.269362266110428 1.3637345176447124 -13.006597293097665 -34.90680769637114 -4.595772813888364 -119.11193715894129 160.97966120538524 -55.982633980354365 158.71485285388448 -8.551289369294977 61.62017090964779 9.698518764748037 -32.90462087232385 -47.82475565519124 -43.60538421578046 89.57359231388423 -55.44895254366762 -126.01634674792098 -1.1462267355397249 2.5701159276518397 24.046028645170022 41.07381673847056 29.292978142372395 169.6202880142778 -145.79108390421732 -76.15693836382778 -56.25411932920226 -156.19316188607922 -20.231745022266345 180.0 -109.01121660921801 31.363859983553407 180.0 109.77949233760458 -61.82016221631914 -169.5921053179634 -162.07601006667394 -45.55349312136588 180.0 -93.68724149106902 -7.232220513276625 180.0
-0.14759956087972925 -0.16960610909659718 0.07499507761572263 -3.315161692995307 9.164409610739977 13.139629162021455 -2.297323887998129 0.7058700630159602 -13.283468490540752 -2.072243824233532 1.2191511504871582 -13.30395840607059 -35.39251390982899 -4.070872267682112 -117.95326082532392 178.17146146572566 0.5108186637664411 176.5882306647611 -159.60186367553638 48.16294709687606 153.47573759849885 -35.22252127742357 -52.65616121235738 -45.74576291319721 84.67367274011903 -53.30676553676303 -130.5343096399659 -2.5810205130494284 5.457520062135527 25.35934818871337 67.86025299765375 28.912231041243473 164.9026802936945 -138.58108619156408 -76.05214669076008 -48.682873103564575 -156.27202308763 -18.323375489578194 180.0 -109.27803121060553 31.698364627652246 180.0 106.80789604713028 -61.7954323169252 -172.72736615210172 -162.30564479714818 -45.20060848341968 180.0 -95.2330354432481 -6.462999833611786 180.0
-0.1485093412976481 -0.17001009577085957 0.07650368422763086 -3.348591638085523 9.448176633379259 12.908154484289819 -2.0283886191599168 0.6397921078003747 -13.169766879276464 -1.8282400031297683 1.0882289555991036 -13.186432833420929 -35.91858655406989 -4.354985706923035 -118.16130081119353 178.4754570507023 4.416174725726643 -169.33052116008005 -161.19784625062815 42.90388203898959 153.4292620152597 -32.791436925558536 -54.54773605123545 -40.111263744761565 86.4156820346127 -53.93467422635983 -129.02388778193372 -9.760978982266124 19.30086705766688 27.495413526103107 74.76597589211363 25.17491208882271 -177.27989154927158 -136.09146637791162 -74.86851018454314 -46.00991160801546 -156.8944189300598 -16.53583717791106 180.0 -109.9908985101784 32.16397312599846 180.0 106.25494672680489 -60.57732364349035 -173.29343412045682 -162.691653788278 -45.94166512245417 180.0 -97.14784483456135 -6.414812882599321 180.0
-0.14839940533182047 -0.17161544193578268 0.07373148993135885 -3.3684974515022605 10.090424374668762 12.128225877495584 -1.824847166297967 0.5880482589541522 -13.561138161586928 -1.635298839546626 1.0018495240350564 -13.5749699761705 -35.343187321306395 -6.298473311136777 -117.42240759593834 -177.1694969303006 -2.1915715102998408 -153.76026151266353 -162.24382707762658 44.30173020032351 155.36935844457082 -38.21033130200967 -58.63126758543901 -44.387069746426924 89.11183261731442 -53.02854461082649 -126.68355290720666 -12.281223622564191 23.08794338712172 29.0361191455391 87.75255616836716 28.00153410862683 -170.26657630057244 -136.20956535924245 -73.69686004578513 -46.00478994771926 -157.93719263265385 -14.258896168984691 180.0 -110.74160196710238 32.108020254771944 180.0 103.74665134385204 -55.00343625485488 -176.03304534509945 -164.2769114529013 -50.66204834211101 180.0 -98.88691777663192 -6.580318695586223 180.0
-0.1513735614450499 -0.17415977709966646 0.06606153435249644 -3.025607365774397 10.325214280693162 9.923927791562683 -1.8557094780635164 0.513385721289111 -13.565827505075832 -1.6828987063770284 0.9362193166640428 -13.5770487692485 -34.834314871673435 -8.318523691309746 -116.50449836667562 -173.57969541584814 -5.1928137664987535 -147.09008753874645 -159.50052518640175 47.7431084740315 153.19975302812594 -29.531760277561748 -57.040783353831955 -35.8828635655412 95.14423269073097 -52.997828452921595 -121.68960988670726 -23.807073552380825 39.025378102537275 35.018567592319854 82.35677682407434 24.828746428708275 -144.22732056915666 -138.47113760839318 -73.11066900394938 -47.999258748933464 -158.4938031581519 -12.265466086678344 180.0 -112.2811501271432 32.21480236455043 180.0 101.43098815974233 -48.25445234590758 -178.17276916848064 -165.602105611911 -55.18294019206418 180.0 -100.11075603122778 -6.716994942452025 180.0
-0.15097118605991353 -0.17993917518929914 0.06273035760877711 -3.0987933489794126 11.112870731820056 9.090797113001459 -1.3560753395166232 0.41630414623443945 -14.19631471951868 -1.2122708856687014 0.7370003982865884 -14.203307127943898 -33.81713607962527 -11.134632654574606 -114.62733348707845 -173.76705854448517 -6.28645149499324 -150.624035282178 -148.63647898190968 46.01059858194613 139.72893695520574 -46.281703709104676 -53.65366848524254 -40.64569240947767 94.76411611293376 -50.55569496197676 -121.761955371828 -14.92493252797691 26.554251275001818 30.805025032439026 104.25997487083642 37.713695772759166 -155.98161106350844 -139.8155533796108 -71.93728257668671 -49.39461078815915 -157.88065916940167 -10.848786731286639 180.0 -112.40825524504625 31.846959189537817 180.0 101.82995882216572 -47.3650705759937 -177.34705055543384 -165.8585929890721 -55.095145537292424 180.0 -100.10945470660629 -6.770376695920043 180.0
-0.14940214120078263 -0.18728942350091932 0.06707898088914704 -3.5169195518809837 11.837766670877908 9.145362372155963 -1.075305420697534 0.41344533502648406 -13.393450450902641 -0.9500662866016126 0.651921130085906 -13.3996903117195 -34.04074709315748 -10.273538706289614 -115.91053765401723 -170.96722408169265 -12.502338305821446 -153.40787393557537 -158.05288907853074 30.01549590814 141.14756937583653 -96.6395031742894 -42.02828550047696 -85.51892679119392 98.48372540773929 -52.218898392653855 -118.66749140362641 160.49691603994276 -33.086454170121385 147.02473635700332 63.191439284907325 -59.98300950037336 31.81269042059605 -140.10705323407163 -71.12713488908678 -50.19209350083791 -157.31069594799263 -9.56915179065357 180.0 -112.65066270006562 31.85694764403463 180.0 102.97401408612944 -49.44391486820719 -175.87165425390802 -166.09628524954636 -52.90286287809093 180.0 -99.616624748733 -6.845839748644346 180.0
-0.14818411187113972 -0.19312606624244125 0.06765307490212956 -3.7378329002613957 12.151137163053603 9.084896223298312 -0.8177501350187281 0.39146735863893917 -13.301124922081202 -0.7055991644092672 0.5695181092789151 -13.306001739410544 -34.91328572857628 -9.779470478869522 -116.44284601455945 -172.10338434796685 -12.283093365082275 -155.83164703373444 -160.216758369188 23.440971426962154 137.88032293392808 -101.56715201224078 -38.3149567483818 -92.56001697682157 97.73383363676454 -52.10178182215279 -119.35615676864029 159.39264834484428 -34.2138257068974 146.22772449642073 56.92255719211024 -64.37350850635595 28.364751292943893 -141.11724727086306 -70.85779697968219 -51.44364045468782 -156.86741872642966 -9.39844349741018 180.0 -113.03583800126833 31.915819303761324 180.0 103.64842569258582 -50.625467155899464 -175.06274117059328 -166.1799396314033 -51.76380476152374 180.0 -99.50501214006938 -7.231932571475896 180.0
